<svg width="24" height="24" viewBox="0 0 24 24" fill="none" xmlns="http://www.w3.org/2000/svg">
<g clip-path="url(#clip0_1591_5257)">
<path d="M20.625 16.4344V7.56563C20.6243 7.4321 20.5884 7.30113 20.5209 7.18592C20.4534 7.0707 20.3567 6.97531 20.2406 6.90938L12.3656 2.45625C12.2545 2.39207 12.1284 2.35828 12 2.35828C11.8716 2.35828 11.7455 2.39207 11.6344 2.45625L3.75937 6.90938C3.64327 6.97531 3.5466 7.0707 3.47911 7.18592C3.41163 7.30113 3.37572 7.4321 3.375 7.56563V16.4344C3.37572 16.5679 3.41163 16.6989 3.47911 16.8141C3.5466 16.9293 3.64327 17.0247 3.75937 17.0906L11.6344 21.5438C11.7455 21.6079 11.8716 21.6417 12 21.6417C12.1284 21.6417 12.2545 21.6079 12.3656 21.5438L20.2406 17.0906C20.3567 17.0247 20.4534 16.9293 20.5209 16.8141C20.5884 16.6989 20.6243 16.5679 20.625 16.4344V16.4344Z" stroke="currentColor" stroke-width="1.5" stroke-linecap="round" stroke-linejoin="round"/>
<path d="M12 15.375C13.864 15.375 15.375 13.864 15.375 12C15.375 10.136 13.864 8.625 12 8.625C10.136 8.625 8.625 10.136 8.625 12C8.625 13.864 10.136 15.375 12 15.375Z" stroke="currentColor" stroke-width="1.5" stroke-linecap="round" stroke-linejoin="round"/>
</g>
<defs>
<clipPath id="clip0_1591_5257">
<rect width="24" height="24" fill="white"/>
</clipPath>
</defs>
</svg>
