<svg width="24" height="24" viewBox="0 0 24 24" fill="none" xmlns="http://www.w3.org/2000/svg">
<g clip-path="url(#clip0_1591_5253)">
<path d="M20.0062 10.275L12.5062 3.45938C12.368 3.33289 12.1874 3.26274 12 3.26274C11.8126 3.26274 11.632 3.33289 11.4937 3.45938L3.99375 10.275C3.91828 10.3463 3.85783 10.4319 3.81597 10.5269C3.77411 10.6219 3.75168 10.7243 3.75 10.8281V19.5C3.75 19.6989 3.82902 19.8897 3.96967 20.0303C4.11032 20.171 4.30109 20.25 4.5 20.25H19.5C19.6989 20.25 19.8897 20.171 20.0303 20.0303C20.171 19.8897 20.25 19.6989 20.25 19.5V10.8281C20.2483 10.7243 20.2259 10.6219 20.184 10.5269C20.1422 10.4319 20.0817 10.3463 20.0062 10.275V10.275Z" stroke="currentColor" stroke-width="1.5" stroke-linecap="round" stroke-linejoin="round"/>
</g>
<defs>
<clipPath id="clip0_1591_5253">
<rect width="24" height="24" fill="white"/>
</clipPath>
</defs>
</svg>
