<svg width="106" height="19" viewBox="0 0 106 19" fill="none" xmlns="http://www.w3.org/2000/svg">
<path d="M20.9829 1.1363V1.88567V2.13546L16.64 5.44V0.137146L20.9829 1.1363Z" fill="url(#paint0_linear_488_1539)"/>
<path fill-rule="evenodd" clip-rule="evenodd" d="M16.4572 0L21.2114 1.11608V2.43446L16.4572 6.12571V0ZM16.9576 0.630417V5.10449L20.711 2.19035V1.51153L16.9576 0.630417Z" fill="white"/>
<path d="M0.640015 18.1486L21.1146 2.28571L39.3143 18.1486H33.7533H24.4007H21.1146H17.323V9.08407L6.4538 18.1486H0.640015Z" fill="url(#paint1_linear_488_1539)"/>
<path fill-rule="evenodd" clip-rule="evenodd" d="M21.1765 1.82855L40 18.3771H17.1311V9.54259L6.62846 18.3771H0L21.1765 1.82855ZM1.47035 17.8702H6.44516L17.6356 8.45715V17.8702H20.9148V2.6752L1.47035 17.8702ZM21.4193 2.71553V17.8702H24.194V8.39967L33.8817 17.8702H38.6573L21.4193 2.71553ZM33.1583 17.8702L24.6985 9.60007V17.8702H33.1583Z" fill="white"/>
<path d="M42 18.3097L45.1809 10.4446H46.8121L50.0033 18.3097H48.2701L45.6601 11.3659H46.3126L43.6924 18.3097H42ZM43.5905 16.6243L44.0289 15.2423H47.6991L48.1477 16.6243H43.5905Z" fill="white"/>
<path d="M50.7437 18.3097V10.4446H52.1098L55.148 15.9951H54.4242L57.4114 10.4446H58.7673L58.7877 18.3097H57.238L57.2279 13.0625H57.5133L55.1276 17.4783H54.3834L51.9467 13.0625H52.2934V18.3097H50.7437Z" fill="white"/>
<path d="M60.4809 18.3097V10.4446H63.723C64.4978 10.4446 65.1809 10.6093 65.7723 10.9389C66.3636 11.261 66.8258 11.7142 67.1588 12.2985C67.4918 12.8828 67.6584 13.5756 67.6584 14.3771C67.6584 15.1711 67.4918 15.864 67.1588 16.4558C66.8258 17.0401 66.3636 17.497 65.7723 17.8266C65.1809 18.1487 64.4978 18.3097 63.723 18.3097H60.4809ZM62.1326 16.8153H63.6414C64.1172 16.8153 64.5284 16.718 64.8751 16.5232C65.2285 16.321 65.5004 16.0363 65.6907 15.6693C65.8878 15.3022 65.9863 14.8715 65.9863 14.3771C65.9863 13.8753 65.8878 13.4446 65.6907 13.085C65.5004 12.718 65.2285 12.4371 64.8751 12.2423C64.5284 12.0401 64.1172 11.9389 63.6414 11.9389H62.1326V16.8153Z" fill="white"/>
<path d="M75.0182 18.3771C74.4745 18.3771 73.9715 18.2798 73.5093 18.085C73.0539 17.8828 72.6563 17.6019 72.3165 17.2423C71.9834 16.8828 71.7218 16.4595 71.5314 15.9726C71.3479 15.4858 71.2562 14.9539 71.2562 14.3771C71.2562 13.8004 71.3479 13.2685 71.5314 12.7816C71.7218 12.2947 71.9868 11.8715 72.3267 11.512C72.6665 11.1524 73.0641 10.8753 73.5195 10.6805C73.9817 10.4783 74.4847 10.3771 75.0284 10.3771C75.5722 10.3771 76.0683 10.4708 76.5169 10.658C76.9723 10.8453 77.3597 11.1299 77.6792 11.512L77.2102 12.0401C76.9111 11.7105 76.5815 11.4745 76.2212 11.3322C75.861 11.1899 75.4736 11.1187 75.059 11.1187C74.6172 11.1187 74.2094 11.2011 73.8356 11.3659C73.4685 11.5232 73.1457 11.7517 72.867 12.0513C72.5951 12.3434 72.381 12.688 72.2247 13.085C72.0752 13.4745 72.0004 13.9052 72.0004 14.3771C72.0004 14.8416 72.0752 15.2723 72.2247 15.6693C72.381 16.0663 72.5951 16.4146 72.867 16.7142C73.1457 17.0063 73.4685 17.2348 73.8356 17.3996C74.2094 17.5569 74.6138 17.6356 75.0488 17.6356C75.4566 17.6356 75.8406 17.5681 76.2009 17.4333C76.5679 17.2985 76.9043 17.07 77.2102 16.7479L77.6384 17.3771C77.2985 17.7067 76.9009 17.9577 76.4455 18.1299C75.9902 18.2947 75.5144 18.3771 75.0182 18.3771ZM76.9145 17.276V14.3771H77.6384V17.3771L76.9145 17.276Z" fill="white"/>
<path d="M80.4465 13.9614H84.2188V14.6693H80.4465V13.9614ZM80.5281 17.5906H84.8203V18.3097H79.7736V10.4446H84.6674V11.1637H80.5281V17.5906Z" fill="white"/>
<path d="M88.5614 18.3771C88.0312 18.3771 87.5215 18.2835 87.0321 18.0962C86.5495 17.9015 86.1757 17.6543 85.9106 17.3547L86.2063 16.7142C86.4578 16.9839 86.7942 17.2123 87.2156 17.3996C87.6438 17.5794 88.0924 17.6693 88.5614 17.6693C89.01 17.6693 89.3736 17.6093 89.6523 17.4895C89.9377 17.3622 90.145 17.1936 90.2742 16.9839C90.4101 16.7741 90.4781 16.5419 90.4781 16.2872C90.4781 15.9801 90.3965 15.7329 90.2334 15.5457C90.0771 15.3584 89.8698 15.2123 89.6115 15.1075C89.3532 14.9951 89.0677 14.8977 88.7551 14.8153C88.4424 14.7329 88.1298 14.6468 87.8171 14.5569C87.5045 14.4595 87.2156 14.3322 86.9505 14.1749C86.6923 14.0176 86.4816 13.8116 86.3184 13.5569C86.1621 13.2947 86.0839 12.9539 86.0839 12.5344C86.0839 12.1449 86.1757 11.7891 86.3592 11.467C86.5495 11.1374 86.8384 10.8753 87.2258 10.6805C87.6132 10.4783 88.1094 10.3771 88.7143 10.3771C89.1153 10.3771 89.5129 10.4408 89.9071 10.5681C90.3014 10.688 90.6412 10.8565 90.9267 11.0738L90.6718 11.7367C90.3659 11.512 90.0397 11.3472 89.693 11.2423C89.3532 11.1374 89.0236 11.085 88.7041 11.085C88.2759 11.085 87.9225 11.1487 87.6438 11.276C87.3651 11.4034 87.1578 11.5756 87.0219 11.7929C86.8928 12.0026 86.8282 12.2423 86.8282 12.512C86.8282 12.8191 86.9064 13.0663 87.0627 13.2535C87.2258 13.4408 87.4365 13.5869 87.6948 13.6917C87.9599 13.7966 88.2487 13.8902 88.5614 13.9726C88.874 14.055 89.1833 14.1449 89.4891 14.2423C89.8018 14.3397 90.0873 14.467 90.3455 14.6243C90.6106 14.7741 90.8213 14.9764 90.9776 15.2311C91.1408 15.4858 91.2223 15.8191 91.2223 16.2311C91.2223 16.6131 91.1272 16.9689 90.9369 17.2985C90.7466 17.6206 90.4543 17.8828 90.0601 18.085C89.6727 18.2798 89.1731 18.3771 88.5614 18.3771Z" fill="white"/>
<path d="M94.8338 18.3771C94.3037 18.3771 93.7939 18.2835 93.3045 18.0962C92.822 17.9015 92.4482 17.6543 92.1831 17.3547L92.4787 16.7142C92.7302 16.9839 93.0667 17.2123 93.4881 17.3996C93.9163 17.5794 94.3649 17.6693 94.8338 17.6693C95.2824 17.6693 95.6461 17.6093 95.9247 17.4895C96.2102 17.3622 96.4175 17.1936 96.5466 16.9839C96.6826 16.7741 96.7505 16.5419 96.7505 16.2872C96.7505 15.9801 96.669 15.7329 96.5059 15.5457C96.3495 15.3584 96.1422 15.2123 95.8839 15.1075C95.6257 14.9951 95.3402 14.8977 95.0275 14.8153C94.7149 14.7329 94.4022 14.6468 94.0896 14.5569C93.7769 14.4595 93.4881 14.3322 93.223 14.1749C92.9647 14.0176 92.754 13.8116 92.5909 13.5569C92.4346 13.2947 92.3564 12.9539 92.3564 12.5344C92.3564 12.1449 92.4482 11.7891 92.6317 11.467C92.822 11.1374 93.1108 10.8753 93.4983 10.6805C93.8857 10.4783 94.3818 10.3771 94.9868 10.3771C95.3878 10.3771 95.7854 10.4408 96.1796 10.5681C96.5738 10.688 96.9137 10.8565 97.1991 11.0738L96.9442 11.7367C96.6384 11.512 96.3121 11.3472 95.9655 11.2423C95.6257 11.1374 95.296 11.085 94.9766 11.085C94.5484 11.085 94.1949 11.1487 93.9163 11.276C93.6376 11.4034 93.4303 11.5756 93.2944 11.7929C93.1652 12.0026 93.1006 12.2423 93.1006 12.512C93.1006 12.8191 93.1788 13.0663 93.3351 13.2535C93.4983 13.4408 93.709 13.5869 93.9672 13.6917C94.2323 13.7966 94.5212 13.8902 94.8338 13.9726C95.1465 14.055 95.4557 14.1449 95.7616 14.2423C96.0743 14.3397 96.3597 14.467 96.618 14.6243C96.8831 14.7741 97.0938 14.9764 97.2501 15.2311C97.4132 15.4858 97.4948 15.8191 97.4948 16.2311C97.4948 16.6131 97.3996 16.9689 97.2093 17.2985C97.019 17.6206 96.7267 17.8828 96.3325 18.085C95.9451 18.2798 95.4455 18.3771 94.8338 18.3771Z" fill="white"/>
<path d="M102.258 18.3771C101.721 18.3771 101.222 18.2798 100.76 18.085C100.304 17.8828 99.9067 17.6019 99.5668 17.2423C99.2338 16.8753 98.9721 16.452 98.7818 15.9726C98.5983 15.4858 98.5065 14.9539 98.5065 14.3771C98.5065 13.8004 98.5983 13.2723 98.7818 12.7929C98.9721 12.306 99.2338 11.8828 99.5668 11.5232C99.9067 11.1562 100.304 10.8753 100.76 10.6805C101.215 10.4783 101.715 10.3771 102.258 10.3771C102.795 10.3771 103.291 10.4783 103.747 10.6805C104.202 10.8753 104.596 11.1524 104.93 11.512C105.269 11.8715 105.531 12.2947 105.715 12.7816C105.905 13.2685 106 13.8004 106 14.3771C106 14.9539 105.905 15.4858 105.715 15.9726C105.531 16.4595 105.269 16.8828 104.93 17.2423C104.596 17.6019 104.202 17.8828 103.747 18.085C103.291 18.2798 102.795 18.3771 102.258 18.3771ZM102.258 17.6356C102.687 17.6356 103.081 17.5569 103.441 17.3996C103.808 17.2348 104.124 17.0063 104.389 16.7142C104.661 16.4146 104.872 16.07 105.021 15.6805C105.171 15.2835 105.246 14.849 105.246 14.3771C105.246 13.9052 105.171 13.4745 105.021 13.085C104.872 12.688 104.661 12.3434 104.389 12.0513C104.124 11.7517 103.808 11.5232 103.441 11.3659C103.081 11.2011 102.687 11.1187 102.258 11.1187C101.83 11.1187 101.433 11.2011 101.066 11.3659C100.698 11.5232 100.379 11.7517 100.107 12.0513C99.8421 12.3434 99.6314 12.688 99.4751 13.085C99.3255 13.4745 99.2508 13.9052 99.2508 14.3771C99.2508 14.8416 99.3255 15.2723 99.4751 15.6693C99.6314 16.0663 99.8421 16.4146 100.107 16.7142C100.379 17.0063 100.698 17.2348 101.066 17.3996C101.433 17.5569 101.83 17.6356 102.258 17.6356Z" fill="white"/>
<defs>
<linearGradient id="paint0_linear_488_1539" x1="16.64" y1="2.78857" x2="20.9829" y2="2.78857" gradientUnits="userSpaceOnUse">
<stop stop-color="#FF9A9E"/>
<stop offset="0.99" stop-color="#FAD0C4"/>
<stop offset="1" stop-color="#FAD0C4"/>
</linearGradient>
<linearGradient id="paint1_linear_488_1539" x1="0.640015" y1="10.2171" x2="39.3143" y2="10.2171" gradientUnits="userSpaceOnUse">
<stop stop-color="#FF9A9E"/>
<stop offset="0.99" stop-color="#FAD0C4"/>
<stop offset="1" stop-color="#FAD0C4"/>
</linearGradient>
</defs>
</svg>
