<svg width="102" height="24" viewBox="0 0 102 24" fill="none" xmlns="http://www.w3.org/2000/svg">
<path fill-rule="evenodd" clip-rule="evenodd" d="M24 12C24 18.6274 18.6274 24 12 24C8.824 24 5.93617 22.7662 3.7897 20.7517L0 24L5.11226e-07 12.0035C1.70416e-07 12.0024 0 12.0012 0 12C0 11.9988 1.70517e-07 11.9976 5.11528e-07 11.9965L5.22257e-07 11.7447L0.00261573 11.7469C0.137313 5.23635 5.45715 0 12 0C18.6274 0 24 5.37258 24 12ZM18.1277 12C18.1277 15.3842 15.3842 18.1277 12 18.1277C8.61579 18.1277 5.87234 15.3842 5.87234 12C5.87234 8.61579 8.61579 5.87234 12 5.87234C15.3842 5.87234 18.1277 8.61579 18.1277 12Z" fill="#FEFEFE"/>
<path d="M32.8674 21.5699C32.616 21.5699 32.4086 21.4882 32.2451 21.3248C32.0817 21.1614 32 20.9539 32 20.7025V11.9716C32.0126 10.9911 32.2451 10.1048 32.6977 9.31279C33.1629 8.52079 33.7851 7.8985 34.5646 7.44593C35.344 6.99336 36.224 6.76707 37.2046 6.76707C38.1977 6.76707 39.084 6.99965 39.8634 7.46479C40.6554 7.91736 41.2777 8.53965 41.7303 9.33165C42.1954 10.1111 42.428 11.0036 42.428 12.0094C42.428 13.0025 42.208 13.8951 41.768 14.6871C41.3406 15.4791 40.756 16.1014 40.0143 16.5539C39.2726 17.0065 38.4366 17.2328 37.5063 17.2328C36.7143 17.2328 35.9977 17.0694 35.3566 16.7425C34.7154 16.4156 34.1749 15.9756 33.7349 15.4225V20.7025C33.7349 20.9539 33.6531 21.1614 33.4897 21.3248C33.3389 21.4882 33.1314 21.5699 32.8674 21.5699ZM37.2046 15.6865C37.8709 15.6865 38.468 15.5294 38.996 15.2151C39.5366 14.8882 39.9577 14.4482 40.2594 13.8951C40.5737 13.3294 40.7309 12.7008 40.7309 12.0094C40.7309 11.3054 40.5737 10.6768 40.2594 10.1236C39.9577 9.55793 39.5366 9.11793 38.996 8.80365C38.468 8.47679 37.8709 8.31336 37.2046 8.31336C36.5383 8.31336 35.9349 8.47679 35.3943 8.80365C34.8663 9.1305 34.4514 9.5705 34.1497 10.1236C33.848 10.6768 33.6971 11.3054 33.6971 12.0094C33.6971 12.7008 33.848 13.3294 34.1497 13.8951C34.4514 14.4482 34.8663 14.8882 35.3943 15.2151C35.9349 15.5294 36.5383 15.6865 37.2046 15.6865Z" fill="#FEFEFE"/>
<path d="M49.6895 17.2328C48.7466 17.2328 47.9043 17.0065 47.1626 16.5539C46.4209 16.1014 45.8363 15.4791 45.4089 14.6871C44.9815 13.8951 44.7678 13.0025 44.7678 12.0094C44.7678 11.0036 44.994 10.1111 45.4466 9.33165C45.9118 8.53965 46.534 7.91736 47.3135 7.46479C48.1055 6.99965 48.9918 6.76707 49.9723 6.76707C50.9655 6.76707 51.8518 6.99965 52.6312 7.46479C53.4106 7.91736 54.0266 8.53965 54.4792 9.33165C54.9443 10.1236 55.1832 11.0162 55.1958 12.0094L54.5169 12.1791C54.5169 13.1345 54.3032 13.9956 53.8758 14.7625C53.4483 15.5294 52.87 16.1328 52.1409 16.5728C51.4243 17.0128 50.6072 17.2328 49.6895 17.2328ZM49.9723 15.6865C50.6512 15.6865 51.2546 15.5294 51.7826 15.2151C52.3106 14.8882 52.7255 14.4482 53.0272 13.8951C53.3415 13.3294 53.4986 12.7008 53.4986 12.0094C53.4986 11.3054 53.3415 10.6768 53.0272 10.1236C52.7255 9.55793 52.3106 9.11793 51.7826 8.80365C51.2546 8.47679 50.6512 8.31336 49.9723 8.31336C49.3186 8.31336 48.7215 8.47679 48.1809 8.80365C47.6403 9.11793 47.2129 9.55793 46.8986 10.1236C46.5969 10.6768 46.446 11.3054 46.446 12.0094C46.446 12.7008 46.5969 13.3294 46.8986 13.8951C47.2129 14.4482 47.6403 14.8882 48.1809 15.2151C48.7215 15.5294 49.3186 15.6865 49.9723 15.6865ZM54.3095 17.1762C54.058 17.1762 53.8506 17.0945 53.6872 16.9311C53.5238 16.7676 53.442 16.5602 53.442 16.3088V13.2916L53.8003 11.4814L55.1958 12.0094V16.3088C55.1958 16.5602 55.1078 16.7676 54.9318 16.9311C54.7683 17.0945 54.5609 17.1762 54.3095 17.1762Z" fill="#FEFEFE"/>
<path d="M58.9065 21.5699C58.6551 21.5699 58.4476 21.4882 58.2842 21.3248C58.1208 21.1614 58.0391 20.9539 58.0391 20.7025V11.9716C58.0516 10.9911 58.2842 10.1048 58.7368 9.31279C59.2019 8.52079 59.8242 7.8985 60.6036 7.44593C61.3831 6.99336 62.2631 6.76707 63.2436 6.76707C64.2368 6.76707 65.1231 6.99965 65.9025 7.46479C66.6945 7.91736 67.3168 8.53965 67.7693 9.33165C68.2345 10.1111 68.4671 11.0036 68.4671 12.0094C68.4671 13.0025 68.2471 13.8951 67.8071 14.6871C67.3796 15.4791 66.7951 16.1014 66.0533 16.5539C65.3116 17.0065 64.4756 17.2328 63.5453 17.2328C62.7533 17.2328 62.0368 17.0694 61.3956 16.7425C60.7545 16.4156 60.2139 15.9756 59.7739 15.4225V20.7025C59.7739 20.9539 59.6922 21.1614 59.5288 21.3248C59.3779 21.4882 59.1705 21.5699 58.9065 21.5699ZM63.2436 15.6865C63.9099 15.6865 64.5071 15.5294 65.0351 15.2151C65.5756 14.8882 65.9968 14.4482 66.2985 13.8951C66.6128 13.3294 66.7699 12.7008 66.7699 12.0094C66.7699 11.3054 66.6128 10.6768 66.2985 10.1236C65.9968 9.55793 65.5756 9.11793 65.0351 8.80365C64.5071 8.47679 63.9099 8.31336 63.2436 8.31336C62.5773 8.31336 61.9739 8.47679 61.4333 8.80365C60.9053 9.1305 60.4905 9.5705 60.1888 10.1236C59.8871 10.6768 59.7362 11.3054 59.7362 12.0094C59.7362 12.7008 59.8871 13.3294 60.1888 13.8951C60.4905 14.4482 60.9053 14.8882 61.4333 15.2151C61.9739 15.5294 62.5773 15.6865 63.2436 15.6865Z" fill="#FEFEFE"/>
<path d="M76.1245 17.2328C75.0811 17.2328 74.1571 17.0128 73.3525 16.5728C72.5605 16.1202 71.9382 15.5042 71.4857 14.7248C71.0331 13.9328 70.8068 13.0276 70.8068 12.0094C70.8068 10.9785 71.0205 10.0734 71.448 9.29393C71.8754 8.50193 72.4662 7.88593 73.2205 7.44593C73.9748 6.99336 74.8485 6.76707 75.8417 6.76707C76.8097 6.76707 77.6457 6.98707 78.3497 7.42707C79.0537 7.8545 79.5942 8.45165 79.9714 9.2185C80.3485 9.97279 80.5371 10.8465 80.5371 11.8396C80.5371 12.0534 80.4617 12.2356 80.3108 12.3865C80.1725 12.5248 79.984 12.5939 79.7451 12.5939H71.9948V11.1985H79.764L78.9908 11.7454C78.9782 11.0791 78.8462 10.4819 78.5948 9.95393C78.3434 9.42593 77.9851 9.01107 77.52 8.70936C77.0548 8.40765 76.4954 8.25679 75.8417 8.25679C75.1251 8.25679 74.5028 8.42022 73.9748 8.74707C73.4594 9.07393 73.0634 9.52022 72.7868 10.0859C72.5102 10.6516 72.372 11.2928 72.372 12.0094C72.372 12.7259 72.5291 13.3671 72.8434 13.9328C73.1702 14.4859 73.6102 14.9259 74.1634 15.2528C74.7291 15.5796 75.3828 15.7431 76.1245 15.7431C76.5268 15.7431 76.9417 15.6676 77.3691 15.5168C77.8091 15.3659 78.1548 15.1899 78.4062 14.9888C78.5822 14.8505 78.7708 14.7814 78.972 14.7814C79.1731 14.7688 79.3491 14.8254 79.5 14.9511C79.6885 15.1271 79.7891 15.3219 79.8017 15.5356C79.8142 15.7368 79.7262 15.9128 79.5377 16.0636C79.1102 16.4031 78.576 16.6859 77.9348 16.9122C77.3062 17.1259 76.7028 17.2328 76.1245 17.2328Z" fill="#FEFEFE"/>
<path d="M85.3488 17.1574C84.8208 17.1574 84.3493 17.0128 83.9345 16.7236C83.5196 16.4345 83.1928 16.0385 82.9539 15.5356C82.7276 15.0202 82.6145 14.4294 82.6145 13.7631V3.2785C82.6145 3.02707 82.6899 2.82593 82.8408 2.67507C83.0042 2.51165 83.2116 2.42993 83.4631 2.42993C83.7271 2.42993 83.9345 2.51165 84.0853 2.67507C84.2488 2.82593 84.3305 3.02707 84.3305 3.2785V13.7631C84.3305 14.2534 84.4248 14.6556 84.6133 14.9699C84.8145 15.2842 85.0596 15.4414 85.3488 15.4414H85.8202C86.0591 15.4414 86.2476 15.5231 86.3859 15.6865C86.5242 15.8374 86.5933 16.0448 86.5933 16.3088C86.5933 16.5602 86.4865 16.7676 86.2728 16.9311C86.0716 17.0819 85.8076 17.1574 85.4808 17.1574H85.3488Z" fill="#FEFEFE"/>
<path d="M92.735 17.2328C91.6916 17.2328 90.7676 17.0128 89.963 16.5728C89.171 16.1202 88.5487 15.5042 88.0962 14.7248C87.6436 13.9328 87.4173 13.0276 87.4173 12.0094C87.4173 10.9785 87.631 10.0734 88.0584 9.29393C88.4859 8.50193 89.0767 7.88593 89.831 7.44593C90.5853 6.99336 91.459 6.76707 92.4522 6.76707C93.4202 6.76707 94.2562 6.98707 94.9602 7.42707C95.6642 7.8545 96.2047 8.45165 96.5819 9.2185C96.959 9.97279 97.1476 10.8465 97.1476 11.8396C97.1476 12.0534 97.0722 12.2356 96.9213 12.3865C96.783 12.5248 96.5944 12.5939 96.3556 12.5939H88.6053V11.1985H96.3745L95.6013 11.7454C95.5887 11.0791 95.4567 10.4819 95.2053 9.95393C94.9539 9.42593 94.5956 9.01107 94.1305 8.70936C93.6653 8.40765 93.1059 8.25679 92.4522 8.25679C91.7356 8.25679 91.1133 8.42022 90.5853 8.74707C90.0699 9.07393 89.6739 9.52022 89.3973 10.0859C89.1207 10.6516 88.9825 11.2928 88.9825 12.0094C88.9825 12.7259 89.1396 13.3671 89.4539 13.9328C89.7807 14.4859 90.2207 14.9259 90.7739 15.2528C91.3396 15.5796 91.9933 15.7431 92.735 15.7431C93.1373 15.7431 93.5522 15.6676 93.9796 15.5168C94.4196 15.3659 94.7653 15.1899 95.0167 14.9888C95.1927 14.8505 95.3813 14.7814 95.5825 14.7814C95.7836 14.7688 95.9596 14.8254 96.1105 14.9511C96.299 15.1271 96.3996 15.3219 96.4122 15.5356C96.4247 15.7368 96.3367 15.9128 96.1482 16.0636C95.7207 16.4031 95.1864 16.6859 94.5453 16.9122C93.9167 17.1259 93.3133 17.2328 92.735 17.2328Z" fill="#FEFEFE"/>
<path d="M100.715 17.1574C100.451 17.1574 100.237 17.0756 100.074 16.9122C99.9101 16.7488 99.8284 16.5414 99.8284 16.2899V7.70993C99.8284 7.44593 99.9101 7.2385 100.074 7.08765C100.237 6.92422 100.451 6.8425 100.715 6.8425C100.966 6.8425 101.174 6.92422 101.337 7.08765C101.5 7.2385 101.582 7.44593 101.582 7.70993V16.2899C101.582 16.5414 101.5 16.7488 101.337 16.9122C101.174 17.0756 100.966 17.1574 100.715 17.1574ZM100.696 5.05107C100.382 5.05107 100.111 4.93793 99.885 4.71165C99.6587 4.48536 99.5455 4.20879 99.5455 3.88193C99.5455 3.55507 99.6587 3.28479 99.885 3.07107C100.124 2.84479 100.4 2.73165 100.715 2.73165C101.016 2.73165 101.28 2.84479 101.507 3.07107C101.746 3.28479 101.865 3.55507 101.865 3.88193C101.865 4.20879 101.752 4.48536 101.526 4.71165C101.299 4.93793 101.023 5.05107 100.696 5.05107Z" fill="#FEFEFE"/>
</svg>
